<svg width="225" height="208" viewBox="0 0 225 208" fill="none" xmlns="http://www.w3.org/2000/svg">
<path d="M9.98178 86.4365C9.00498 91.5646 10.1533 107.626 20.9627 124.012C22.3353 128.731 21.9063 137.309 20.9627 146.832C20.2077 154.45 24.0225 163.218 26.0242 166.649C33.2305 181.062 60.1683 187.41 78.6129 185.437C97.0576 183.464 105.122 192.987 117.561 199.678C130.001 206.37 143.384 208.772 157.539 205.683C171.694 202.595 183.276 180.29 183.962 179.175C184.648 178.059 196.058 157.213 204.208 149.92C212.358 142.628 229.087 125.127 216.991 104.538C204.895 83.9486 202.492 73.7397 202.492 66.8766C202.492 61.3861 201.005 52.75 200.262 49.1182C191.769 16.8615 163.544 3.13525 134.033 1.07631C104.521 -0.982624 70.9777 32.6467 65.573 36.7646C60.1683 40.8825 36.0615 48.8609 30.6568 52.3782C25.2521 55.8956 13.7566 66.6192 9.98178 86.4365Z" fill="#091E42" fill-opacity="0.05"/>
<circle cx="212.959" cy="54.094" r="4.03209" fill="#091E42" fill-opacity="0.05"/>
<circle cx="217.506" cy="69.2786" r="7.37786" fill="#091E42" fill-opacity="0.05"/>
<circle cx="201.463" cy="168.194" r="6.09103" fill="#091E42" fill-opacity="0.05"/>
<circle cx="8.69512" cy="135.851" r="8.57891" fill="#091E42" fill-opacity="0.05"/>
<circle cx="61.0264" cy="24.1536" r="8.57891" fill="#091E42" fill-opacity="0.05"/>
<circle cx="9.20994" cy="153.009" r="3.25999" fill="#091E42" fill-opacity="0.05"/>
<circle cx="44.8125" cy="15.4888" r="4.54682" fill="#091E42" fill-opacity="0.05"/>
<path opacity="0.6" d="M99.3327 117.936H134.317C134.697 117.936 135.062 117.785 135.331 117.516C135.6 117.247 135.751 116.882 135.751 116.502V89.4966C135.743 89.4352 135.73 89.3743 135.714 89.3146C135.704 89.2234 135.686 89.1334 135.66 89.0457C135.589 88.9049 135.519 88.7636 135.451 88.6219C135.433 88.5996 135.406 88.589 135.387 88.5679C135.317 88.4903 135.238 88.421 135.152 88.3612C135.089 88.3105 135.022 88.2653 134.951 88.2262C134.866 88.1876 134.777 88.1581 134.686 88.1381C134.597 88.1104 134.505 88.0919 134.412 88.0829C134.38 88.0829 134.353 88.0641 134.32 88.0641H125.745V83.7198C125.745 83.3399 125.594 82.9755 125.325 82.7069C125.056 82.4383 124.692 82.2873 124.312 82.2873H109.761C109.381 82.2873 109.016 82.4382 108.747 82.7068C108.478 82.9754 108.327 83.3398 108.327 83.7198V88.0641H99.3327C99.2998 88.0641 99.2728 88.0806 99.2411 88.0829C99.1465 88.0917 99.0532 88.1106 98.9627 88.1393C98.8739 88.1592 98.7873 88.1879 98.7042 88.225C98.6302 88.2658 98.5598 88.3129 98.4939 88.3659C98.4089 88.4237 98.3302 88.4902 98.259 88.5643C98.239 88.5866 98.2108 88.5984 98.192 88.6219C98.1638 88.6717 98.1383 88.723 98.1157 88.7757C98.0631 88.8594 98.0194 88.9483 97.9853 89.041C97.9561 89.1343 97.9368 89.2303 97.9277 89.3275C97.9127 89.3831 97.9014 89.4396 97.8936 89.4966V116.502C97.8936 116.691 97.9309 116.877 98.0033 117.052C98.0756 117.226 98.1817 117.384 98.3154 117.517C98.4491 117.651 98.6078 117.756 98.7823 117.828C98.9569 117.9 99.1439 117.936 99.3327 117.936ZM100.766 115.07V92.4108L106.842 97.1016C108.238 98.1742 109.799 99.013 111.464 99.5849V101.567C111.464 101.943 111.538 102.316 111.682 102.664C111.827 103.012 112.038 103.328 112.304 103.594C112.571 103.86 112.887 104.072 113.235 104.215C113.583 104.359 113.956 104.433 114.333 104.433H115.39V104.903C115.39 105.283 115.541 105.647 115.81 105.915C116.079 106.184 116.444 106.335 116.824 106.335C117.204 106.335 117.568 106.184 117.837 105.915C118.106 105.647 118.257 105.283 118.257 104.903V104.433H119.321C120.08 104.432 120.808 104.13 121.345 103.593C121.882 103.057 122.183 102.329 122.184 101.57V99.5849C123.85 99.0127 125.411 98.174 126.808 97.1016L132.884 92.405V115.066L100.766 115.07ZM109.752 90.9302H130.116L125.055 94.8378C124.17 95.5154 123.203 96.0802 122.178 96.5192C122.162 95.772 121.854 95.0609 121.32 94.5376C120.786 94.0144 120.069 93.7205 119.321 93.7188H114.333C113.585 93.7205 112.868 94.0144 112.334 94.5376C111.8 95.0609 111.492 95.772 111.476 96.5192C110.451 96.0802 109.485 95.5154 108.599 94.8378L103.532 90.9302H109.752ZM116.828 101.568H116.82H116.812H114.333V96.5814H119.324V101.569L116.828 101.568ZM111.19 85.1499H122.87V88.0618H111.194L111.19 85.1499ZM156.239 64.6164H142.281L133.118 55.4581C132.865 55.2235 132.54 55.0819 132.197 55.0565C132.165 55.0565 132.137 55.0377 132.105 55.0377H87.4641C86.0957 55.0396 84.7838 55.5837 83.8162 56.5509C82.8486 57.518 82.3041 58.8292 82.3022 60.1969V137.925C82.3041 139.293 82.8486 140.604 83.8162 141.572C84.7838 142.539 86.0957 143.083 87.4641 143.085H92.3182V147.505C92.3198 148.873 92.8641 150.185 93.8318 151.152C94.7994 152.12 96.1115 152.664 97.4801 152.666H156.239C157.608 152.664 158.919 152.119 159.887 151.152C160.854 150.184 161.398 148.873 161.4 147.505V69.7768C161.398 68.4091 160.854 67.0978 159.887 66.1304C158.919 65.163 157.608 64.6186 156.239 64.6164ZM146.451 72.8355H133.535V59.9198L146.451 72.8355ZM85.171 137.917V60.1887C85.1716 59.5807 85.4135 58.9978 85.8437 58.5679C86.2738 58.138 86.857 57.8962 87.4653 57.8956H130.662V74.2703C130.663 74.6503 130.814 75.0146 131.083 75.2832C131.352 75.5518 131.716 75.7027 132.097 75.7027H148.479V137.917C148.478 138.526 148.235 139.109 147.805 139.539C147.374 139.968 146.791 140.21 146.182 140.21H87.4653C86.857 140.21 86.2738 139.968 85.8437 139.538C85.4135 139.108 85.1716 138.525 85.171 137.917ZM158.532 147.497C158.532 148.105 158.29 148.688 157.86 149.118C157.43 149.548 156.847 149.79 156.239 149.791H97.4801C96.8715 149.791 96.288 149.549 95.8576 149.119C95.4273 148.689 95.1853 148.105 95.1846 147.497V143.076H146.184C146.862 143.077 147.534 142.944 148.16 142.685C148.787 142.426 149.356 142.046 149.835 141.567C150.315 141.087 150.695 140.518 150.954 139.892C151.213 139.266 151.346 138.595 151.345 137.917V74.2703C151.345 74.2386 151.33 74.2115 151.327 74.1798C151.319 74.0555 151.295 73.9327 151.255 73.8147C151.244 73.783 151.246 73.7478 151.233 73.7172C151.221 73.6867 151.211 73.6879 151.203 73.6703C151.137 73.5244 151.047 73.3907 150.937 73.2746C150.937 73.2746 150.93 73.2617 150.926 73.257L145.149 67.4825H156.239C156.847 67.4834 157.43 67.7255 157.86 68.1557C158.29 68.5858 158.532 69.1688 158.532 69.7768V147.497ZM99.3327 135.499H125.62C125.797 135.496 125.972 135.46 126.136 135.394C126.155 135.387 126.175 135.382 126.194 135.374L126.225 135.364L134.918 131.303C135.166 131.188 135.375 131.005 135.521 130.775C135.668 130.545 135.745 130.278 135.745 130.005C135.745 129.733 135.668 129.466 135.521 129.236C135.375 129.006 135.166 128.823 134.918 128.707L126.225 124.645C126.217 124.645 126.209 124.645 126.201 124.645C126.111 124.614 126.019 124.591 125.926 124.578C125.833 124.549 125.739 124.531 125.643 124.521C125.634 124.521 125.627 124.521 125.619 124.521H99.3327C98.9526 124.521 98.5881 124.672 98.3193 124.941C98.0505 125.21 97.8995 125.574 97.8995 125.954V134.077C97.9023 134.455 98.0545 134.816 98.323 135.083C98.5915 135.349 98.9544 135.499 99.3327 135.499ZM127.057 131.815V128.194L130.934 130.005L127.057 131.815ZM100.766 127.376H124.186V132.634H100.766V127.376ZM97.8995 66.05C97.8995 65.67 98.0505 65.3056 98.3192 65.0367C98.5879 64.7679 98.9525 64.6167 99.3327 64.6164H104.159C104.35 64.6109 104.541 64.6439 104.72 64.7135C104.899 64.783 105.062 64.8877 105.199 65.0213C105.337 65.1549 105.446 65.3148 105.521 65.4914C105.596 65.668 105.634 65.8577 105.634 66.0495C105.634 66.2412 105.596 66.431 105.521 66.6076C105.446 66.7842 105.337 66.944 105.199 67.0776C105.062 67.2112 104.899 67.3159 104.72 67.3854C104.541 67.455 104.35 67.488 104.159 67.4825H99.3327C99.1445 67.4825 98.9581 67.4455 98.7842 67.3735C98.6104 67.3015 98.4524 67.196 98.3193 67.063C98.1862 66.9299 98.0806 66.772 98.0086 66.5982C97.9366 66.4244 97.8995 66.2382 97.8995 66.05ZM97.8995 74.2691C97.8995 73.8892 98.0505 73.5248 98.3193 73.2562C98.5881 72.9875 98.9526 72.8366 99.3327 72.8366H125.62C126 72.8366 126.365 72.9875 126.634 73.2562C126.902 73.5248 127.053 73.8892 127.053 74.2691C127.053 74.649 126.902 75.0133 126.634 75.282C126.365 75.5506 126 75.7015 125.62 75.7015H99.3327C98.9528 75.7015 98.5884 75.5508 98.3197 75.2824C98.0509 75.014 97.8998 74.65 97.8995 74.2703V74.2691Z" fill="#3366FF"/>
</svg>
